<svg width="16" height="15" viewBox="0 0 16 15" fill="none" xmlns="http://www.w3.org/2000/svg">
<path d="M8.36602 13.7031C14.2465 10.2031 17.3118 4.91234 13.9572 2.47046C11.757 0.86889 9.29791 2.14488 8.36602 2.95884H8.34451H8.34445H8.32294C7.39105 2.14488 4.93194 0.86889 2.73175 2.47046C-0.62282 4.91234 2.44245 10.2031 8.32294 13.7031H8.34445H8.34451H8.36602Z" fill="#696969"/>
<path d="M8.34445 2.95884H8.36602C9.29791 2.14488 11.757 0.86889 13.9572 2.47046C17.3118 4.91234 14.2465 10.2031 8.36602 13.7031H8.34445M8.34451 2.95884H8.32294C7.39105 2.14488 4.93194 0.86889 2.73175 2.47046C-0.62282 4.91234 2.44245 10.2031 8.32294 13.7031H8.34451" stroke="white"/>
<path d="M1.00049 0.703125L15.0005 13.2031" stroke="white"/>
</svg>
